<svg xmlns="http://www.w3.org/2000/svg" viewBox="0 0 1200 630">
  <defs>
    <linearGradient id="bg1" x1="0%" y1="0%" x2="100%" y2="100%">
      <stop offset="0%" style="stop-color:#0f172a"/>
      <stop offset="100%" style="stop-color:#1e293b"/>
    </linearGradient>
    <linearGradient id="accent1" x1="0%" y1="0%" x2="100%" y2="0%">
      <stop offset="0%" style="stop-color:#10b981"/>
      <stop offset="100%" style="stop-color:#34d399"/>
    </linearGradient>
    <filter id="glow1">
      <feGaussianBlur stdDeviation="3" result="coloredBlur"/>
      <feMerge>
        <feMergeNode in="coloredBlur"/>
        <feMergeNode in="SourceGraphic"/>
      </feMerge>
    </filter>
  </defs>
  
  <rect width="1200" height="630" fill="url(#bg1)"/>
  
  <pattern id="grid1" width="60" height="60" patternUnits="userSpaceOnUse">
    <path d="M 60 0 L 0 0 0 60" fill="none" stroke="#334155" stroke-width="0.5" opacity="0.3"/>
  </pattern>
  <rect width="1200" height="630" fill="url(#grid1)"/>
  
  <circle cx="100" cy="100" r="150" fill="#10b981" opacity="0.05"/>
  <circle cx="1100" cy="530" r="200" fill="#34d399" opacity="0.05"/>
  
  <g opacity="0.4">
    <circle cx="200" cy="200" r="8" fill="#10b981"/>
    <circle cx="250" cy="150" r="6" fill="#34d399"/>
    <circle cx="300" cy="220" r="7" fill="#10b981"/>
    <circle cx="220" cy="280" r="5" fill="#34d399"/>
    <line x1="200" y1="200" x2="250" y2="150" stroke="#10b981" stroke-width="1" opacity="0.5"/>
    <line x1="250" y1="150" x2="300" y2="220" stroke="#10b981" stroke-width="1" opacity="0.5"/>
    <line x1="200" y1="200" x2="220" y2="280" stroke="#10b981" stroke-width="1" opacity="0.5"/>
    <line x1="220" y1="280" x2="300" y2="220" stroke="#10b981" stroke-width="1" opacity="0.5"/>
  </g>
  
  <g transform="translate(900, 150)" filter="url(#glow1)">
    <path d="M 40 0 L 60 40 L 35 40 L 50 80 L 10 30 L 35 30 L 20 0 Z" fill="url(#accent1)" opacity="0.8"/>
  </g>
  
  <g transform="translate(150, 400)" opacity="0.6">
    <rect x="0" y="0" width="60" height="80" rx="4" fill="#334155"/>
    <rect x="10" y="15" width="40" height="4" fill="#64748b"/>
    <rect x="10" y="25" width="30" height="4" fill="#64748b"/>
    <rect x="10" y="35" width="35" height="4" fill="#64748b"/>
    <rect x="10" y="50" width="25" height="4" fill="#10b981"/>
  </g>
  
  <text x="600" y="280" text-anchor="middle" font-family="system-ui, -apple-system, sans-serif" font-size="52" font-weight="bold" fill="#f8fafc">
    OpenAI GPT-5.5 Instant
  </text>
  <text x="600" y="340" text-anchor="middle" font-family="system-ui, -apple-system, sans-serif" font-size="28" fill="#94a3b8">
    全新默认模型发布，文档处理更快速
  </text>
  
  <rect x="520" y="400" width="160" height="40" rx="20" fill="url(#accent1)" opacity="0.9"/>
  <text x="600" y="427" text-anchor="middle" font-family="system-ui, -apple-system, sans-serif" font-size="16" font-weight="600" fill="#0f172a">
    AI NEWS • 20260506
  </text>
</svg>